<?xml version="1.0" standalone="no"?>
<!DOCTYPE svg PUBLIC "-//W3C//DTD SVG 20010904//EN"
 "http://www.w3.org/TR/2001/REC-SVG-20010904/DTD/svg10.dtd">
<svg version="1.0" xmlns="http://www.w3.org/2000/svg"
 width="500.000000pt" height="500.000000pt" viewBox="0 0 500.000000 500.000000"
 preserveAspectRatio="xMidYMid meet">

<g transform="translate(0.000000,500.000000) scale(0.100000,-0.100000)"
fill="#000000" stroke="none">
<path d="M2995 4925 c13 -74 18 -215 6 -215 -6 0 -11 11 -11 25 0 14 -4 33 -9
43 -6 9 -13 34 -16 56 -12 73 -15 29 -6 -85 5 -63 8 -125 5 -139 -28 -182 -37
-226 -45 -234 -5 -6 -9 -1 -9 14 0 33 -9 20 -14 -21 -10 -75 -72 -241 -93
-251 -5 -1 -25 -28 -45 -58 -21 -30 -45 -65 -54 -78 -9 -12 -23 -63 -30 -112
-20 -134 -44 -167 -63 -87 l-10 42 5 -50 c3 -27 12 -60 20 -73 9 -13 13 -29
11 -35 -2 -7 0 -22 4 -34 8 -23 -4 -33 -16 -13 -11 17 -50 11 -63 -11 -12 -19
-15 -20 -31 -5 -23 21 -27 20 -63 -6 -31 -22 -78 -33 -78 -18 0 5 15 11 33 13
l32 4 -35 1 c-21 1 -45 -6 -60 -18 -23 -18 -26 -18 -43 -2 -18 16 -20 16 -32
-2 -13 -18 -16 -17 -47 12 -18 17 -44 40 -58 50 -25 20 -25 20 -9 64 31 79 31
83 7 45 l-25 -39 -30 26 c-17 14 -32 23 -35 21 -2 -3 -4 11 -3 30 1 23 -2 35
-11 35 -12 0 -40 38 -32 44 9 8 73 26 89 26 11 0 19 -6 19 -14 0 -17 -27 -30
-57 -27 -13 1 -23 -2 -23 -7 0 -13 29 -24 43 -16 7 3 3 -2 -8 -12 l-20 -17 20
8 c41 16 66 17 83 5 9 -7 5 -1 -10 13 l-26 25 41 18 c23 9 45 19 50 22 4 2 7
-1 7 -6 0 -6 -19 -17 -42 -26 -24 -9 -31 -14 -16 -11 15 3 40 10 55 16 l28 11
-23 18 -22 19 22 3 c13 2 27 13 33 26 8 18 16 22 40 17 29 -5 29 -5 5 6 -15 6
-52 8 -92 5 -74 -7 -94 -2 -109 25 -8 16 -6 21 13 29 16 6 18 9 6 9 -9 1 -23
-6 -32 -14 -8 -8 -25 -19 -38 -24 -21 -9 -20 -10 11 -10 26 -1 42 -10 67 -36
17 -19 38 -35 45 -35 8 0 3 9 -11 20 -19 15 -21 20 -9 20 18 0 42 -24 45 -46
2 -9 -7 -12 -29 -8 -24 3 -27 2 -12 -4 19 -9 19 -9 -3 -21 -19 -10 -22 -9 -22
9 0 24 -22 26 -95 7 -35 -9 -54 -20 -62 -38 -12 -22 -13 -20 -13 28 0 45 4 54
31 77 20 17 25 26 15 26 -9 0 -16 8 -16 19 0 11 -16 39 -35 63 -19 23 -39 48
-43 53 -5 6 -9 15 -10 20 -1 6 -9 19 -18 29 -26 30 -65 125 -79 194 -14 66
-25 89 -26 56 0 -16 -2 -15 -10 5 -18 44 -36 235 -33 336 l4 100 -15 -50 c-8
-27 -15 -60 -15 -73 0 -15 -4 -21 -11 -16 -8 5 -10 38 -6 108 6 101 6 101 -8
46 -8 -30 -15 -92 -16 -138 -1 -92 -8 -97 -26 -19 l-12 52 4 -76 c2 -41 1 -85
-2 -98 -5 -21 -6 -21 -19 -2 -8 10 -18 43 -23 73 l-9 53 0 -50 c0 -27 3 -74 7
-104 l8 -53 -19 23 c-19 24 -19 24 -13 -46 4 -58 3 -66 -6 -45 -18 39 -22 4
-6 -57 8 -29 12 -53 10 -53 -12 0 -114 89 -147 129 -47 57 -51 61 -38 36 6
-11 40 -52 76 -92 36 -39 66 -74 66 -78 0 -10 -61 35 -94 70 -75 76 -146 194
-146 238 0 15 10 5 31 -33 16 -30 37 -62 45 -70 8 -8 -4 18 -27 57 -40 70 -59
84 -59 43 0 -38 31 -110 61 -142 30 -33 54 -68 45 -68 -2 0 -18 19 -35 42 -17
23 -31 38 -31 33 0 -5 -16 7 -36 26 l-37 34 7 -49 c6 -49 6 -49 -14 -31 -16
15 -23 16 -33 6 -9 -9 -6 -22 14 -61 21 -38 23 -50 13 -54 -20 -8 -18 -18 12
-62 16 -23 22 -40 15 -42 -17 -6 -13 -22 15 -59 14 -18 20 -33 15 -33 -18 0
-13 -26 8 -44 11 -10 17 -24 14 -32 -3 -8 2 -23 11 -33 9 -10 13 -20 10 -24
-10 -9 86 -22 169 -22 42 1 77 -2 77 -6 0 -4 -29 -10 -65 -14 -67 -7 -136 0
-167 17 -23 11 -24 -8 -2 -20 12 -7 13 -11 5 -16 -8 -5 -4 -17 14 -39 119
-147 115 -140 96 -154 -14 -12 -13 -15 13 -37 18 -15 24 -26 17 -30 -20 -13
-11 -35 20 -52 23 -11 28 -19 20 -27 -17 -17 -13 -26 20 -46 18 -11 26 -22 20
-25 -19 -12 -12 -35 13 -42 15 -3 26 -14 28 -27 2 -16 11 -23 33 -25 16 -2 35
-12 43 -23 7 -10 22 -19 33 -19 10 0 19 -5 19 -10 0 -25 85 60 117 118 19 35
37 61 40 59 12 -13 -42 -119 -83 -161 -25 -27 -41 -45 -35 -42 6 4 19 2 29 -3
18 -9 98 -4 88 6 -2 3 7 21 21 41 13 20 27 49 30 65 6 29 23 38 23 12 0 -22
-28 -86 -48 -109 -17 -20 -17 -20 8 -5 14 8 36 36 48 62 l24 47 29 -15 c16 -9
29 -18 29 -21 0 -14 -63 -59 -130 -91 -99 -48 -192 -62 -289 -43 l-72 13 -117
-38 c-64 -21 -175 -66 -247 -101 -71 -35 -147 -66 -168 -70 -62 -11 -87 -40
-96 -109 -7 -64 -40 -124 -110 -199 -34 -36 -139 -96 -171 -96 -11 -1 -10 -4
4 -15 11 -8 25 -15 30 -14 6 0 5 3 -2 6 -8 3 14 21 55 43 37 21 77 47 87 59
11 12 24 21 30 21 6 0 -4 -12 -22 -26 -18 -14 -30 -30 -27 -35 4 -5 -14 -22
-39 -37 -25 -16 -44 -31 -42 -33 3 -2 -5 -5 -17 -5 -12 -1 -33 -5 -46 -9 -17
-6 -22 -5 -17 3 4 7 1 12 -8 12 -24 0 -19 -13 15 -37 33 -22 77 -18 71 7 -1 6
3 8 9 5 11 -8 89 71 89 90 0 6 11 22 25 35 13 12 22 26 20 30 -3 4 14 33 36
64 32 44 43 71 51 124 12 72 22 92 46 92 12 0 13 -3 4 -12 -7 -7 -12 -23 -11
-37 l1 -26 11 28 c7 18 18 27 34 27 27 0 29 -8 6 -39 -18 -26 -5 -23 30 7 31
27 21 -37 -13 -82 -17 -22 -30 -43 -30 -47 0 -4 -16 -31 -35 -60 -19 -30 -35
-58 -35 -63 0 -15 -131 -156 -145 -156 -17 0 -80 -59 -71 -67 3 -4 20 6 36 22
20 19 30 24 30 14 0 -8 18 6 40 31 22 25 40 41 40 36 0 -6 13 11 29 36 16 25
36 48 45 51 9 4 16 14 16 22 0 9 16 40 35 69 19 29 35 57 35 63 0 5 11 24 24
41 23 32 24 32 29 10 3 -13 9 -48 13 -78 3 -31 18 -75 32 -100 15 -25 41 -76
59 -115 l32 -70 -39 -6 c-22 -3 -43 -8 -47 -12 -3 -4 8 -4 27 -1 45 10 36 -17
-11 -29 -56 -14 -53 -24 6 -19 46 4 55 2 55 -12 0 -13 -11 -16 -52 -17 l-53
-2 42 -6 c53 -9 61 -17 40 -38 -13 -14 -21 -15 -42 -5 -44 20 -63 14 -27 -8
28 -17 32 -23 22 -35 -19 -23 -77 -35 -168 -35 -45 0 -108 -6 -140 -14 -122
-31 -165 -37 -173 -25 -7 11 -44 9 -84 -5 -20 -8 -20 -7 -1 8 16 13 17 16 4
16 -29 0 -41 -27 -35 -80 3 -28 11 -58 17 -68 8 -14 9 -11 5 13 -5 26 -3 25 9
-8 21 -53 10 -76 -83 -166 -43 -42 -81 -82 -83 -90 -6 -22 -28 -3 -28 24 0 32
10 56 21 49 5 -3 9 6 9 20 0 14 4 28 10 31 6 3 10 1 10 -4 0 -6 4 -11 9 -11 4
0 6 11 3 25 -5 31 17 63 29 43 6 -8 9 2 9 27 0 30 3 36 10 25 8 -12 10 -11 10
7 0 12 -11 35 -25 50 l-26 28 7 -37 c5 -30 0 -51 -24 -103 -17 -36 -34 -65
-38 -65 -4 0 -4 17 -1 37 l5 38 -19 -40 c-26 -53 -20 -113 20 -197 34 -71 38
-86 19 -70 -10 8 -12 0 -10 -39 3 -41 1 -48 -11 -43 -12 4 -16 -3 -19 -28 -2
-23 -8 -32 -18 -31 -28 5 -124 -61 -145 -99 -19 -36 -19 -36 0 -79 11 -24 33
-59 49 -77 27 -30 32 -32 72 -26 36 5 44 3 53 -14 19 -35 12 -47 -13 -23 -21
20 -29 22 -53 13 l-28 -10 26 -1 c43 -2 67 -42 32 -55 -12 -5 -23 1 -36 18
-10 15 -26 26 -35 26 -11 0 -13 -3 -6 -8 16 -10 34 -48 27 -56 -12 -12 -43 -6
-43 9 0 8 -10 20 -22 26 -19 9 -21 9 -10 -2 21 -22 15 -49 -11 -49 -49 0 -130
123 -162 248 -14 54 -14 58 5 82 67 82 86 179 50 259 -20 43 -19 68 2 55 7 -5
8 -2 3 6 -6 10 -4 12 8 7 12 -4 31 8 63 39 39 40 44 50 40 77 -6 30 -5 30 5 7
l10 -25 14 25 c8 14 15 21 15 15 0 -5 4 -3 10 5 5 8 7 41 6 75 -2 33 -1 41 1
18 2 -24 8 -43 13 -43 5 0 7 15 5 33 -3 17 -7 58 -10 90 -4 31 -10 55 -15 52
-5 -3 -7 -12 -4 -20 3 -8 -1 -21 -9 -30 -9 -8 -18 -41 -22 -72 -10 -92 -13
-93 -15 -8 l-3 80 -8 -89 c-10 -106 -19 -122 -20 -40 -1 32 -5 70 -10 84 -7
21 -8 20 -4 -9 3 -19 0 -63 -6 -98 -18 -105 -81 -179 -194 -227 -23 -9 -29
-15 -15 -12 l25 5 -22 -16 c-24 -16 -30 -33 -12 -33 6 0 33 11 61 25 27 14 54
25 58 25 5 0 14 -18 21 -39 18 -60 4 -120 -42 -187 l-41 -58 18 -60 c26 -90
88 -209 124 -240 31 -26 83 -35 95 -16 3 5 11 7 19 4 16 -6 106 39 130 65 38
42 -5 93 -70 84 -26 -4 -35 1 -58 31 -62 82 -56 135 23 186 55 35 62 36 55 13
-4 -11 5 -6 22 12 15 17 31 29 35 28 5 -2 11 13 15 32 7 37 14 41 45 25 14 -8
19 -21 19 -55 0 -41 3 -46 43 -73 92 -63 148 -76 252 -58 118 21 216 76 265
152 17 25 17 29 3 51 -16 24 -66 32 -79 12 -9 -16 -125 -69 -150 -69 -32 0
-120 48 -133 73 -10 18 -10 33 -1 66 10 37 13 41 27 29 14 -11 15 -8 12 30 -3
23 -1 42 2 42 13 0 -4 41 -22 54 -10 7 -16 16 -12 19 13 13 -31 48 -74 59 -24
6 -42 15 -41 20 2 5 7 9 12 8 17 -3 26 26 26 88 l0 63 29 -15 29 -15 6 39 c5
31 11 41 29 44 84 15 176 26 230 26 34 0 80 5 102 11 81 21 87 22 95 9 6 -9
12 0 20 28 11 44 18 50 38 30 13 -13 19 -2 24 44 5 43 26 19 38 -41 22 -118 3
-250 -54 -366 -48 -100 -103 -241 -128 -332 -18 -63 -22 -106 -22 -223 0 -135
2 -150 28 -220 16 -41 44 -99 64 -128 43 -66 150 -172 219 -218 59 -39 77 -59
41 -45 -13 4 -72 11 -133 15 -320 20 -595 71 -760 142 l-84 36 -83 -69 c-113
-94 -158 -128 -190 -144 l-28 -14 62 -69 c78 -86 158 -139 262 -172 73 -23
104 -27 314 -34 128 -5 257 -14 287 -20 53 -11 105 -40 162 -90 165 -146 190
-164 323 -238 106 -58 287 -118 455 -148 112 -21 423 -29 578 -15 237 21 535
92 721 172 129 56 199 108 252 189 14 21 33 41 41 44 8 4 90 15 182 26 464 57
734 130 865 233 42 33 96 102 96 123 0 6 -37 41 -81 76 -45 34 -108 84 -139
110 -32 27 -61 48 -65 48 -4 0 -31 -16 -60 -36 -30 -19 -93 -51 -140 -70 -156
-64 -301 -85 -579 -85 -293 0 -316 -9 -461 -185 -118 -144 -207 -206 -370
-257 -103 -33 -339 -65 -350 -48 -4 8 57 49 150 101 22 12 191 98 375 191 184
93 360 184 390 203 237 150 349 266 418 435 33 80 36 96 40 213 2 70 -1 155
-7 191 -14 80 -65 240 -90 283 -75 127 -124 309 -113 422 5 46 22 58 22 15 0
-40 15 -60 32 -45 17 14 38 -2 38 -29 0 -22 26 -45 32 -28 3 10 15 10 54 0 27
-7 90 -12 139 -12 102 1 318 -26 323 -40 2 -5 8 -7 13 -3 10 6 24 -22 39 -83
6 -24 15 -43 21 -43 6 0 7 5 4 10 -9 15 5 51 17 44 7 -5 9 1 5 15 -4 17 -2 20
7 12 10 -8 12 -3 9 22 -3 28 -2 29 7 10 13 -31 18 -29 12 5 -4 26 -4 26 11 7
14 -18 15 -16 7 24 l-8 43 39 -6 c22 -3 39 -4 39 -1 0 11 -66 45 -85 45 -15
-1 -13 -4 10 -15 29 -13 28 -13 -35 -15 -61 -1 -64 -2 -45 -17 l20 -16 -20 8
c-47 16 -85 18 -90 2 -5 -11 -14 -13 -43 -7 -80 17 -213 30 -310 30 -55 0
-113 5 -127 12 -35 16 -32 43 7 59 17 7 26 15 19 17 -7 2 -31 -4 -52 -14 -37
-16 -41 -16 -57 -1 -21 22 -8 35 49 47 l44 9 -60 -2 c-50 -2 -60 1 -63 16 -3
13 3 17 30 17 18 0 48 -4 66 -9 17 -5 32 -6 32 -2 0 9 -69 31 -99 31 -25 0
-28 18 -5 27 9 3 50 -12 98 -37 76 -41 87 -44 177 -48 65 -3 120 1 173 12 43
9 101 16 128 16 61 0 112 36 113 79 0 16 5 25 14 23 7 -1 30 7 50 19 46 27 91
41 91 28 0 -6 -5 -19 -10 -30 -9 -15 -7 -19 6 -19 13 0 15 -8 12 -35 -5 -43
12 -46 43 -7 20 24 21 25 17 5 -3 -12 -1 -24 6 -26 8 -3 8 -8 -1 -18 -19 -19
-16 -29 10 -29 22 -1 22 -1 2 -17 -19 -15 -19 -15 13 -9 48 8 138 65 152 95 8
17 14 21 19 13 10 -17 57 34 87 95 13 26 24 41 24 33 0 -9 6 -6 16 9 13 18 15
38 11 92 -5 64 -11 82 -44 144 -6 11 -17 33 -24 48 -7 16 -29 37 -49 47 -19
11 -29 19 -22 20 6 0 12 4 12 8 0 10 -99 52 -125 53 -17 0 -16 2 5 11 23 10
21 11 -40 29 -78 23 -98 23 -119 5 -13 -11 -33 -12 -96 -4 -44 5 -100 7 -124
6 -41 -3 -45 -6 -57 -40 -11 -33 -10 -42 8 -80 20 -40 22 -42 31 -21 13 30 26
33 69 16 68 -27 72 -106 6 -116 -36 -5 -48 5 -48 41 0 27 -14 29 -32 4 -7 -10
-21 -21 -30 -25 -16 -6 -36 -72 -25 -84 3 -3 44 -8 91 -10 47 -3 86 -10 86
-15 0 -4 -20 -18 -45 -30 -48 -24 -56 -34 -27 -40 13 -3 8 -9 -18 -23 -35 -19
-35 -19 -10 -26 14 -4 42 -4 63 -2 30 5 36 3 32 -9 -6 -16 -54 -42 -62 -34 -3
2 8 12 24 21 26 15 26 15 3 9 -27 -7 -60 -32 -60 -46 0 -4 12 -5 28 -2 l27 7
-28 -31 c-18 -18 -28 -39 -26 -53 4 -44 -10 -59 -56 -59 -23 0 -89 -10 -146
-21 -143 -29 -211 -23 -315 29 -44 21 -91 42 -106 46 -16 4 -28 13 -28 22 0 9
17 53 38 98 38 80 38 82 34 180 -4 97 -4 98 17 87 11 -7 28 -26 37 -44 9 -18
36 -53 59 -78 23 -25 46 -55 49 -67 4 -12 20 -29 36 -37 16 -8 37 -28 47 -45
9 -16 23 -30 30 -30 8 0 28 -16 45 -36 17 -19 37 -33 44 -30 7 3 27 -6 43 -20
16 -13 32 -20 35 -15 7 11 -54 61 -78 65 -21 3 -178 144 -193 173 -7 14 -31
45 -53 70 -22 25 -38 48 -36 50 2 2 -17 23 -42 47 -33 31 -43 48 -39 61 5 12
13 15 25 10 9 -4 26 -9 37 -11 16 -4 15 -3 -3 5 -28 13 -40 40 -22 51 18 11
38 2 45 -20 9 -28 34 -34 27 -7 -2 12 -9 28 -15 35 -17 21 0 25 21 4 10 -10
29 -50 40 -88 16 -52 31 -79 62 -109 22 -21 40 -48 40 -58 0 -13 5 -17 15 -14
8 4 17 1 21 -5 5 -7 2 -8 -7 -3 -8 5 -5 -1 5 -14 11 -12 26 -19 33 -16 8 2 11
1 8 -5 -3 -5 5 -14 17 -21 22 -12 22 -11 9 7 -8 10 -2 7 13 -8 28 -29 41 -34
50 -19 3 5 -7 17 -22 26 -57 37 -142 118 -169 160 -15 25 -31 45 -35 45 -3 0
-11 22 -18 50 -13 55 -55 100 -93 100 -12 0 -33 3 -47 5 -14 3 -19 3 -12 -1 6
-3 12 -10 12 -15 0 -22 -54 -4 -204 70 -147 73 -227 109 -357 161 -45 18 -46
18 -145 -6 -180 -43 -260 -29 -377 69 -41 34 -46 42 -34 54 18 19 44 7 63 -28
18 -35 58 -63 79 -55 8 3 28 1 43 -5 l27 -10 -31 33 c-18 18 -37 43 -43 56
-20 38 -41 103 -32 97 5 -2 12 -16 15 -31 9 -34 47 -94 77 -120 19 -16 32 -19
59 -13 19 3 27 7 17 8 -10 0 -29 8 -43 17 -29 20 -97 137 -92 161 2 10 14 -5
32 -41 37 -73 99 -128 135 -119 36 8 41 12 41 29 0 8 9 14 19 14 30 0 51 11
51 26 0 8 11 19 25 24 27 10 32 29 13 48 -9 9 -8 12 4 12 8 0 21 6 27 14 10
12 9 13 -8 9 -11 -3 -36 0 -55 7 -37 12 -118 73 -125 94 -2 6 7 1 20 -10 34
-31 67 -46 126 -60 38 -9 50 -9 47 0 -2 6 9 19 26 28 33 19 40 48 13 48 -15 0
-14 4 7 23 14 12 21 19 16 15 -24 -19 -133 -2 -171 26 -33 24 -9 30 52 14 66
-18 146 -23 124 -9 -11 7 -9 13 8 30 11 11 21 25 21 29 0 5 20 31 45 58 26 28
43 55 40 63 -3 8 3 23 12 34 14 15 15 21 5 24 -10 4 -10 9 3 23 10 11 15 25
12 32 -2 7 5 24 17 37 l21 23 -40 -17 c-57 -25 -143 -45 -190 -44 -36 1 -33 2
25 15 88 18 207 57 192 62 -8 2 -4 14 13 34 26 31 32 54 15 60 -6 2 2 21 16
42 21 31 25 43 16 56 -8 14 -6 28 10 59 15 31 18 45 10 53 -9 9 -17 7 -32 -7
-20 -18 -20 -18 -14 31 l7 49 -37 -34 c-20 -19 -36 -33 -36 -30 0 2 9 28 20
57 21 54 26 102 12 102 -12 0 -32 -22 -32 -35 0 -5 7 -1 15 9 15 19 15 19 15
-1 0 -11 -11 -41 -25 -66 -14 -24 -23 -51 -19 -60 3 -9 -7 -28 -27 -49 l-32
-33 28 38 c15 21 25 40 22 43 -2 2 -17 -14 -32 -36 -16 -22 -40 -49 -54 -60
-14 -10 -24 -21 -21 -24 4 -3 19 7 34 21 16 15 27 22 25 17 -8 -21 -148 -134
-165 -134 -5 0 8 11 29 25 38 26 49 42 22 31 -27 -10 -16 9 36 59 51 50 155
193 146 201 -2 3 -19 -19 -38 -48 -46 -73 -93 -129 -145 -172 -50 -42 -68 -40
-52 4 13 39 4 64 -11 28 -12 -31 -25 -38 -17 -10 2 9 7 46 11 82 l6 65 -19
-34 c-15 -26 -20 -30 -25 -17 -4 9 -2 28 3 42 6 14 10 53 9 87 l-1 62 -14 -65
c-15 -66 -33 -100 -35 -64 -1 10 0 68 1 128 1 76 -1 106 -9 102 -6 -4 -11 -34
-11 -66 0 -60 -7 -90 -20 -90 -4 0 -9 57 -12 128 -3 95 -9 134 -22 157 l-17
30 6 -30z m462 -432 c-20 -38 -111 -126 -167 -161 -65 -40 -79 -47 -50 -22 51
44 154 146 188 189 38 45 54 42 29 -6z m-1969 -175 l47 -42 -45 26 c-92 53
-194 154 -206 203 -6 25 6 16 75 -57 45 -48 103 -106 129 -130z m2032 163 c0
-30 -143 -157 -219 -194 -54 -27 -49 -20 25 32 38 26 93 76 123 110 50 57 71
73 71 52z m-2214 -71 c27 -30 53 -57 57 -59 5 -2 23 -16 40 -30 18 -15 51 -38
74 -51 24 -13 41 -25 39 -27 -9 -9 -159 84 -204 126 -49 46 -82 88 -82 104 0
15 27 -8 76 -63z m267 -121 c20 -11 37 -22 37 -24 0 -22 -198 126 -199 148 -1
5 27 -17 62 -48 34 -31 79 -66 100 -76z m1827 107 c0 -2 -8 -10 -17 -17 -16
-13 -17 -12 -4 4 13 16 21 21 21 13z m60 -20 c0 -2 -8 -10 -17 -17 -16 -13
-17 -12 -4 4 13 16 21 21 21 13z m28 -28 c-17 -26 -73 -68 -133 -100 -39 -20
-136 -51 -142 -44 -2 2 34 21 79 44 46 22 108 58 138 80 63 46 79 52 58 20z
m-2175 -31 c34 -27 178 -105 217 -119 8 -3 12 -9 8 -13 -20 -21 -214 77 -264
133 -46 52 -29 52 39 -1z m2157 -55 c0 -27 -117 -85 -200 -100 -55 -10 -80 -8
-44 4 60 19 173 67 199 83 34 22 45 25 45 13z m-2105 -51 c44 -21 100 -45 125
-52 49 -13 74 -29 48 -29 -64 0 -258 83 -258 110 0 14 -4 15 85 -29z m90 -96
c28 -7 61 -16 75 -19 14 -2 -6 -2 -45 1 -71 5 -175 37 -175 53 0 5 21 2 48 -6
26 -9 70 -22 97 -29z m1951 -14 c-11 -17 -93 -32 -161 -29 l-70 3 60 8 c33 4
80 11 105 16 64 12 72 12 66 2z m-1961 -32 c22 -4 61 -8 88 -9 26 0 47 -4 47
-10 0 -14 -110 -13 -168 1 -26 7 -54 18 -62 27 -16 16 -21 16 95 -9z m1943
-30 c-28 -16 -111 -22 -175 -13 l-58 9 100 6 c55 3 111 6 125 7 21 1 23 0 8
-9z m-11 -54 c-5 -13 -204 -12 -217 1 -7 7 28 10 105 10 72 -1 114 -5 112 -11z
m-1767 -14 c0 -14 -126 -34 -176 -28 -25 2 -51 10 -57 16 -9 9 6 10 58 6 54
-4 150 3 173 14 1 0 2 -3 2 -8z m666 -36 c-7 -19 -47 -17 -54 4 -3 9 1 11 16
7 11 -4 23 -2 27 4 10 16 19 4 11 -15z m999 6 l70 -7 -45 -13 c-44 -13 -96
-10 -144 9 -41 15 -33 34 12 25 20 -4 69 -10 107 -14z m-1645 -15 c0 -8 -16
-20 -36 -26 -40 -13 -158 -9 -174 5 -6 7 12 9 48 7 31 -2 77 4 102 12 59 18
60 18 60 2z m1597 -42 c46 -5 60 -10 56 -20 -7 -19 -100 -18 -147 1 -46 19
-48 40 -3 31 17 -3 60 -9 94 -12z m-1605 -46 c-53 -25 -152 -23 -152 3 0 5 24
9 53 10 28 0 68 6 87 13 51 19 61 -4 12 -26z m58 -33 c0 -40 -162 -74 -190
-40 -11 13 -5 15 46 15 37 0 74 8 99 19 22 11 41 20 43 20 1 1 2 -6 2 -14z
m1422 -36 c22 -11 65 -23 94 -26 58 -6 70 -19 29 -29 -56 -14 -175 29 -175 64
0 16 4 16 52 -9z m-1392 -28 c0 -13 -18 -26 -59 -45 -63 -28 -110 -33 -129
-14 -22 22 -13 28 41 28 37 0 66 7 97 25 25 13 46 24 48 25 1 0 2 -8 2 -19z
m1406 -125 c49 -23 64 -46 31 -46 -26 0 -94 45 -134 89 -58 61 -55 85 3 28 25
-25 70 -57 100 -71z m-1395 61 c-57 -60 -157 -96 -168 -61 -2 6 25 18 63 27
36 9 79 28 96 42 42 36 48 31 9 -8z m79 8 c0 -33 -130 -142 -174 -147 -49 -5
-40 18 16 41 29 12 73 41 98 65 42 41 60 53 60 41z m1235 -97 c17 -13 43 -29
59 -36 19 -9 26 -16 19 -23 -23 -23 -106 36 -161 117 -32 46 -14 50 22 5 17
-22 45 -50 61 -63z m-1233 3 c-44 -61 -110 -111 -146 -111 -30 0 -16 19 36 47
30 16 70 50 93 78 46 58 61 47 17 -14z m1142 10 c20 -27 52 -61 71 -75 38 -29
45 -46 18 -46 -23 0 -117 99 -131 138 -16 46 1 39 42 -17z m-1091 -43 c-27
-50 -96 -118 -119 -118 -27 0 -23 19 9 39 19 11 53 48 77 80 52 71 72 70 33
-1z m92 -29 c-26 -72 -73 -138 -99 -139 -5 0 3 11 18 25 15 14 41 54 57 90 35
74 45 84 24 24z m859 8 c3 -13 17 -40 30 -60 28 -41 21 -49 -12 -14 -20 21
-42 67 -42 88 0 19 18 8 24 -14z m-731 6 c-7 -2 -21 -2 -30 0 -10 3 -4 5 12 5
17 0 24 -2 18 -5z m192 -62 c-3 -6 -11 -11 -17 -11 -6 0 -6 6 2 15 14 17 26
13 15 -4z m79 -13 c-3 -5 -9 -6 -14 -3 -5 3 -11 1 -15 -4 -3 -6 -13 -7 -21 -4
-13 5 -13 7 -2 14 16 10 58 8 52 -3z m26 -8 c0 -5 -5 -10 -11 -10 -5 0 -7 5
-4 10 3 6 8 10 11 10 2 0 4 -4 4 -10z m376 -75 c126 -87 194 -97 380 -55 l101
23 84 -38 c109 -48 240 -109 331 -154 l73 -36 6 -140 c5 -139 5 -141 -23 -197
-75 -153 -91 -353 -43 -541 8 -33 40 -109 69 -167 87 -174 120 -305 119 -475
-1 -105 -4 -129 -27 -190 -37 -97 -67 -145 -139 -222 -63 -67 -126 -118 -227
-183 -71 -46 -58 -40 -450 -237 -184 -93 -370 -190 -412 -216 -43 -26 -82 -47
-88 -47 -5 0 -67 29 -137 64 -71 35 -213 101 -318 146 -271 117 -478 219 -566
279 -145 98 -236 206 -280 333 -63 181 -29 402 106 693 64 138 80 202 79 330
-1 159 -49 325 -136 466 -23 39 -31 66 -39 141 -5 51 -13 107 -18 125 -11 37
-15 33 100 89 36 17 119 50 185 73 l120 41 68 -16 c62 -16 72 -16 154 0 102
20 215 70 282 126 53 44 60 47 60 24 0 -8 4 -13 9 -10 5 3 44 -3 87 -15 118
-30 273 -16 363 32 29 15 38 16 52 6 9 -6 43 -30 75 -52z m1968 -174 c18 -7
18 -8 3 -14 -31 -12 -17 -23 44 -36 50 -10 59 -14 49 -26 -10 -12 -5 -18 24
-31 28 -14 33 -21 26 -34 -5 -10 -6 -21 -2 -25 10 -11 -40 5 -56 18 -9 7 -11
6 -6 -7 4 -10 17 -22 30 -27 31 -11 32 -33 2 -23 -13 3 -31 13 -40 21 -14 13
-16 13 -14 0 1 -8 7 -21 13 -28 6 -8 16 -24 22 -37 12 -23 12 -23 -14 -6 -14
9 -33 31 -41 48 l-14 31 4 -29 4 -28 -21 20 -20 21 31 29 c18 17 32 34 32 39
-1 24 -44 53 -80 53 -12 0 -24 9 -30 24 -5 13 -18 27 -29 31 -12 3 -21 11 -21
16 0 11 76 11 104 0z m-251 -45 c26 -24 47 -48 47 -53 0 -5 16 -17 35 -26 20
-9 38 -24 41 -32 7 -18 24 -20 24 -3 0 18 -31 48 -50 48 -10 0 -23 7 -30 15
-10 13 -9 15 8 15 12 0 24 -5 28 -11 5 -8 10 -6 16 5 11 19 -15 56 -39 56 -7
0 -13 5 -13 10 0 15 40 11 85 -9 36 -16 38 -19 18 -25 -32 -10 -37 -39 -13
-83 11 -21 20 -49 20 -63 0 -17 3 -21 9 -12 15 25 20 -27 5 -56 -8 -15 -14
-51 -14 -79 0 -45 -4 -55 -25 -69 -33 -21 -42 -12 -21 21 9 14 14 25 10 25
-12 0 -64 -42 -64 -51 0 -6 4 -8 9 -5 4 3 6 -5 4 -18 -5 -25 -58 -86 -75 -86
-11 0 23 50 47 70 8 7 15 17 15 23 0 5 -8 3 -18 -6 -33 -31 -44 -20 -22 23 16
31 28 41 60 50 56 15 71 42 69 125 -1 52 -4 63 -12 49 -5 -10 -24 -35 -42 -54
-18 -19 -37 -48 -42 -65 -8 -24 -17 -31 -47 -36 l-37 -6 27 28 c14 15 23 32
20 38 -4 7 -42 11 -92 11 l-84 0 0 30 c0 33 12 37 50 15 37 -21 93 -18 124 6
49 38 27 89 -58 133 -52 27 -82 33 -88 16 -2 -6 -8 -2 -15 9 -10 16 -8 23 14
45 36 36 61 32 116 -18z m-3363 -36 c0 -5 -7 -10 -15 -10 -8 0 -15 5 -15 10 0
6 7 10 15 10 8 0 15 -4 15 -10z m3570 -10 c0 -15 7 -20 25 -20 30 0 33 -20 5
-27 -11 -3 -20 -12 -20 -20 0 -18 36 -90 50 -98 15 -9 12 -48 -5 -81 -10 -20
-13 -44 -9 -80 5 -37 2 -59 -10 -82 -21 -40 -33 -40 -41 -2 l-6 29 -25 -27
-25 -27 6 30 c4 17 14 38 22 48 13 14 13 17 2 17 -9 0 -10 3 -3 8 23 15 32 49
28 105 -2 31 0 57 5 57 12 0 21 -26 21 -61 0 -36 17 -38 26 -3 5 19 -1 42 -20
79 -14 29 -26 57 -26 64 0 7 -4 9 -10 6 -5 -3 -10 3 -10 15 0 12 -5 30 -11 41
-6 12 -8 27 -5 35 8 21 36 17 36 -6z m74 -16 c5 -14 4 -15 -9 -4 -17 14 -19
20 -6 20 5 0 12 -7 15 -16z m195 -100 c27 -35 27 -48 -1 -33 -19 10 -17 5 10
-25 17 -20 32 -46 32 -57 0 -18 -3 -18 -35 8 -25 20 -37 39 -41 66 -5 25 -12
37 -23 37 -12 0 -13 2 -3 8 7 5 10 16 6 26 -6 16 -4 17 14 7 11 -6 30 -23 41
-37z m-95 -20 c13 -5 15 -14 10 -39 -4 -24 1 -46 20 -83 31 -60 33 -101 8
-132 l-18 -22 -1 37 c-1 20 -3 39 -6 42 -11 11 -27 -9 -27 -33 0 -27 -16 -64
-28 -64 -14 0 -7 58 9 76 24 29 30 53 22 93 l-8 36 -5 -48 c-3 -26 -9 -48 -15
-48 -14 0 -22 60 -13 96 7 28 6 29 -7 11 -8 -11 -15 -41 -15 -66 0 -25 -6 -55
-14 -65 -13 -18 -15 -16 -21 26 -5 35 -3 55 10 79 9 18 15 45 13 61 -4 24 -2
26 13 18 10 -5 24 -18 32 -29 8 -11 17 -17 20 -13 11 11 8 48 -5 61 -13 13 -1
16 26 6z m-263 -115 c-29 -27 -42 -23 -26 9 8 15 20 41 27 57 l12 30 4 -39 c2
-29 -2 -43 -17 -57z m322 52 c9 -20 17 -53 17 -72 l0 -34 -25 47 c-24 45 -33
98 -17 98 4 0 15 -18 25 -39z m65 -80 c3 -8 -1 -12 -9 -9 -7 2 -15 10 -17 17
-3 8 1 12 9 9 7 -2 15 -10 17 -17z m-488 -31 c-14 -11 -36 -20 -49 -20 -23 0
-24 1 -6 20 11 12 31 20 49 20 l31 0 -25 -20z m440 -81 c-8 -29 -14 -38 -20
-29 -4 7 -4 23 0 34 5 12 12 30 15 41 13 36 17 -2 5 -46z m-320 32 c0 -5 -7
-14 -15 -21 -16 -14 -18 -10 -9 14 6 17 24 22 24 7z m160 -47 c-9 -22 -13 -25
-20 -14 -6 10 -4 21 7 32 21 24 26 17 13 -18z m-290 1 c0 -17 -48 -51 -58 -41
-4 4 6 19 21 32 33 28 37 29 37 9z m289 -62 c-46 -78 -74 -96 -56 -37 6 21 21
41 34 47 12 5 26 19 29 31 4 12 9 16 11 9 3 -7 -5 -30 -18 -50z m74 32 c-3 -9
-8 -14 -10 -11 -3 3 -2 9 2 15 9 16 15 13 8 -4z m-4118 -5 c-3 -5 -12 -10 -18
-10 -7 0 -6 4 3 10 19 12 23 12 15 0z m4137 -12 c-7 -7 -12 -8 -12 -2 0 6 3
14 7 17 3 4 9 5 12 2 2 -3 -1 -11 -7 -17z m-218 -15 c-10 -40 -14 -41 -14 -5
0 18 5 32 10 32 6 0 8 -11 4 -27z m166 -22 c-12 -24 -30 -28 -30 -7 0 19 33
52 38 38 2 -6 -2 -20 -8 -31z m-3520 -51 c0 -5 -2 -10 -4 -10 -3 0 -8 5 -11
10 -3 6 -1 10 4 10 6 0 11 -4 11 -10z m-565 -288 c-4 -4 -13 2 -21 13 -13 17
-13 20 3 26 13 4 19 1 21 -13 2 -11 1 -23 -3 -26z m-98 16 c-3 -8 -6 -5 -6 6
-1 11 2 17 5 13 3 -3 4 -12 1 -19z m47 -3 c-4 -8 -8 -15 -10 -15 -2 0 -4 7 -4
15 0 8 4 15 10 15 5 0 7 -7 4 -15z m-347 -117 c-2 -13 -4 -3 -4 22 0 25 2 35
4 23 2 -13 2 -33 0 -45z m330 40 c-3 -8 -6 -5 -6 6 -1 11 2 17 5 13 3 -3 4
-12 1 -19z m-347 -125 c-11 -17 -11 -17 -6 0 3 10 7 28 7 40 2 22 2 22 6 0 2
-12 -1 -30 -7 -40z m27 25 c-3 -8 -6 -5 -6 6 -1 11 2 17 5 13 3 -3 4 -12 1
-19z m352 -34 c33 -7 43 -24 14 -24 -11 0 1 -12 27 -27 31 -19 40 -28 28 -31
-16 -3 -15 -6 2 -35 24 -38 26 -54 5 -37 -12 10 -17 7 -26 -16 -6 -16 -14 -48
-16 -72 -5 -39 -3 -45 31 -77 41 -38 103 -60 150 -51 17 3 58 22 90 42 50 30
63 34 83 25 23 -10 32 -41 13 -41 -5 0 -10 4 -10 9 0 18 -31 20 -65 3 -19 -9
-35 -20 -35 -24 0 -9 30 1 49 16 10 8 17 5 27 -9 25 -33 9 -55 -25 -34 -14 10
-27 10 -52 1 -25 -9 -27 -10 -7 -7 20 4 30 0 38 -14 13 -25 1 -32 -108 -67
-99 -31 -152 -31 -222 2 -72 33 -108 68 -103 98 6 30 -21 83 -46 91 -12 3 -21
18 -24 42 -4 20 -5 38 -3 40 1 2 18 -11 36 -27 33 -29 33 -30 9 -30 -22 -1
-22 -2 -6 -11 10 -6 27 -30 37 -52 l19 -42 -1 44 c-1 30 -9 52 -25 71 -13 15
-23 31 -23 34 0 13 26 0 37 -19 7 -11 12 -15 13 -10 0 21 -32 56 -43 47 -8 -6
-24 -4 -44 4 -38 16 -44 29 -10 19 21 -6 21 -6 -3 14 -36 30 -13 26 27 -5 32
-24 48 -19 18 6 -8 7 -12 17 -8 23 4 7 0 8 -13 3 -10 -4 -15 -4 -11 0 4 4 1
14 -6 22 -9 11 -5 11 15 -2 15 -10 26 -22 23 -26 -5 -8 25 -37 32 -32 3 2 8 0
11 -4 4 -4 1 -4 -7 1 -10 5 -12 4 -7 -4 4 -6 11 -9 16 -6 4 3 13 -7 19 -22 10
-24 10 -25 5 -3 -3 14 -6 33 -7 42 -1 9 -4 15 -8 13 -9 -6 -52 42 -55 61 -2
12 0 13 12 3 8 -6 12 -14 9 -17 -8 -8 26 -42 37 -36 4 3 18 -14 29 -38 16 -33
19 -36 13 -13 -3 17 -8 41 -10 54 -1 13 -7 28 -13 34 -16 16 -14 -6 2 -22 9
-11 9 -12 0 -7 -22 12 -34 43 -18 43 19 0 50 -35 64 -72 l11 -30 -6 30 c-4 17
-7 38 -8 47 0 9 -3 15 -7 13 -3 -3 -15 5 -25 18 -19 22 -19 22 1 5 11 -9 25
-16 30 -15 6 1 15 -14 22 -33 l12 -35 0 32 c1 17 -3 35 -9 38 -5 3 -10 11 -10
16 0 6 5 7 12 3 6 -4 3 4 -8 18 -10 15 -30 33 -44 42 -24 15 -24 15 -4 16 12
0 36 -3 53 -6z m-19 -50 c8 -9 -3 -4 -25 10 -51 35 -57 42 -19 23 17 -9 37
-23 44 -33z m-445 -34 c-15 -23 -29 -40 -31 -37 -6 5 49 87 54 82 2 -2 -8 -22
-23 -45z m1590 -1253 c55 -25 159 -71 230 -102 294 -128 435 -199 435 -217 0
-16 -277 -3 -369 16 -159 35 -319 147 -513 359 l-80 88 98 -50 c55 -27 144
-69 199 -94z"/>
<path d="M1489 2871 l-29 -29 0 -817 0 -816 25 -24 24 -25 960 0 959 0 31 26
31 26 0 526 c0 290 -4 532 -8 539 -18 28 -70 33 -335 33 -308 0 -320 -3 -325
-62 -6 -65 7 -68 280 -68 l238 0 0 -435 c0 -239 -2 -435 -4 -435 -2 0 -29 37
-60 83 l-56 83 0 302 0 303 -34 14 c-27 11 -71 13 -212 9 l-179 -6 -17 28 c-9
16 -77 119 -152 229 l-135 200 280 3 c237 2 283 0 302 -13 30 -21 70 -19 101
6 29 23 33 54 10 87 l-15 22 -704 0 c-387 0 -710 -3 -719 -6 -14 -5 -16 -43
-16 -318 0 -229 3 -315 12 -324 8 -8 60 -12 170 -12 87 0 158 -2 158 -4 0 -3
-13 -24 -29 -48 -15 -24 -68 -104 -116 -178 -48 -74 -116 -178 -150 -230 -34
-52 -82 -125 -106 -162 -24 -38 -47 -68 -51 -68 -4 0 -8 326 -8 725 l0 725
893 -4 c490 -2 903 -5 917 -6 30 -2 70 40 70 74 0 13 -9 35 -21 50 l-20 26
-965 0 -966 0 -29 -29z m933 -338 c-11 -16 -35 -53 -54 -83 -19 -30 -79 -121
-132 -202 l-97 -148 -150 0 -149 0 0 230 0 230 300 0 301 0 -19 -27z m228
-423 c0 -6 -63 -10 -185 -10 -118 0 -185 4 -185 10 0 6 17 36 38 68 22 31 63
94 92 139 l52 83 94 -140 c52 -76 94 -144 94 -150z m-267 -122 c-9 -12 -73
-108 -247 -375 l-67 -103 -78 0 c-94 0 -103 10 -60 69 16 23 29 43 29 46 0 2
17 30 39 62 61 91 156 237 161 248 3 6 13 22 24 38 18 26 21 27 113 27 75 0
93 -3 86 -12z m374 -27 c16 -22 52 -75 81 -118 29 -43 81 -121 117 -173 35
-52 73 -110 84 -127 l20 -33 -97 0 -97 0 -56 83 c-30 45 -103 153 -162 239
-59 86 -107 159 -107 162 0 4 43 6 95 6 l95 0 27 -39z m348 7 c3 -18 5 -98 3
-178 l-3 -144 -84 124 c-47 69 -100 146 -118 172 -18 26 -33 50 -33 53 0 3 52
5 115 5 l114 0 6 -32z m-621 -14 c10 -15 75 -110 144 -213 68 -102 132 -194
140 -204 8 -9 13 -19 10 -22 -3 -3 -145 -4 -316 -3 l-312 3 98 150 c54 83 122
187 151 233 29 45 56 82 60 82 3 0 14 -12 25 -26z m-494 -556 c-1 -7 -13 -31
-28 -53 l-28 -40 -87 -3 c-53 -2 -87 1 -87 7 0 6 14 30 31 55 l30 46 85 0 c61
0 84 -3 84 -12z m855 6 c14 -6 75 -85 75 -98 0 -3 -202 -6 -450 -6 -247 0
-450 3 -450 7 0 3 14 28 31 55 l31 48 373 0 c205 0 381 -3 390 -6z m312 -36
c16 -24 32 -49 37 -55 5 -10 -15 -13 -91 -13 l-98 0 -32 48 -31 47 92 6 c50 3
92 6 93 7 1 1 14 -17 30 -40z"/>
<path d="M4827 3069 c7 -7 15 -10 18 -7 3 3 -2 9 -12 12 -14 6 -15 5 -6 -5z"/>
<path d="M510 1916 c0 -2 7 -7 16 -10 8 -3 12 -2 9 4 -6 10 -25 14 -25 6z"/>
<path d="M755 1720 c33 -16 69 -29 80 -30 11 0 -7 13 -40 30 -33 16 -69 29
-80 29 -11 0 6 -13 40 -29z"/>
<path d="M580 1707 c0 -30 127 -86 195 -86 l50 1 -45 9 c-60 12 -96 27 -147
61 -47 32 -53 33 -53 15z"/>
<path d="M3250 4365 c-7 -8 -8 -15 -2 -15 5 0 15 7 22 15 7 8 8 15 2 15 -5 0
-15 -7 -22 -15z"/>
<path d="M2205 4040 c-23 -5 -3 -6 50 -3 50 3 92 7 94 9 7 7 -102 2 -144 -6z"/>
<path d="M2416 4009 c68 -37 124 -79 124 -95 0 -6 7 -17 15 -24 13 -11 14 -10
9 6 -4 10 -14 28 -23 38 -23 28 -146 106 -167 106 -9 0 9 -14 42 -31z"/>
<path d="M2090 3966 c0 -2 7 -7 16 -10 8 -3 12 -2 9 4 -6 10 -25 14 -25 6z"/>
<path d="M2290 3876 c0 -3 9 -10 20 -16 11 -6 20 -8 20 -6 0 3 -9 10 -20 16
-11 6 -20 8 -20 6z"/>
<path d="M2425 3840 c-19 -8 -19 -9 3 -9 12 -1 22 4 22 9 0 6 -1 10 -2 9 -2 0
-12 -4 -23 -9z"/>
<path d="M2368 3833 c6 -2 18 -2 25 0 6 3 1 5 -13 5 -14 0 -19 -2 -12 -5z"/>
<path d="M545 3160 c-55 -11 -143 -15 -152 -7 -11 12 -67 8 -121 -8 -51 -15
-70 -35 -34 -35 16 -1 -18 -16 -95 -43 -36 -13 -44 -27 -15 -27 11 0 7 -6 -15
-20 -28 -17 -63 -60 -48 -60 3 0 -2 -12 -12 -27 -14 -23 -10 -22 24 11 23 21
46 35 52 32 7 -4 9 -1 5 8 -3 9 -11 16 -18 16 -6 1 7 10 29 22 33 17 37 22 22
27 -15 6 -12 10 18 24 19 9 49 17 65 17 35 0 40 17 8 29 -20 7 -15 10 29 19
71 16 90 7 55 -23 l-27 -24 60 24 c33 14 65 25 72 25 20 0 4 -26 -23 -38 -14
-7 -24 -20 -24 -32 0 -17 4 -19 28 -14 15 4 30 12 34 18 5 7 8 7 8 1 1 -5 5 0
11 13 5 13 13 21 18 17 10 -6 26 12 26 30 0 21 60 16 88 -7 24 -19 27 -28 22
-51 -6 -24 -9 -26 -19 -11 -11 14 -16 14 -47 1 -45 -19 -95 -62 -102 -88 -4
-14 2 -29 19 -46 20 -20 32 -24 71 -21 39 2 50 7 60 28 7 14 13 19 13 13 0 -7
7 -13 15 -13 10 0 15 -10 15 -30 0 -30 0 -30 -59 -30 -77 0 -118 -14 -101 -35
21 -25 79 -57 97 -53 12 3 3 11 -28 25 -67 30 -70 43 -12 43 26 0 65 3 86 6
30 5 37 11 37 29 0 34 -10 55 -26 55 -8 0 -19 9 -26 20 -17 27 -28 25 -28 -3
0 -49 -42 -61 -86 -24 -25 22 -26 25 -13 53 8 16 31 38 51 49 l38 20 15 -23
c22 -30 30 -28 43 14 12 39 4 70 -23 97 -18 18 -20 19 -80 7z m-51 -26 c20 -8
21 -21 1 -21 -8 0 -16 6 -19 14 -6 15 -4 15 18 7z"/>
<path d="M333 3070 c15 -10 17 -22 13 -78 -5 -61 -4 -63 5 -27 6 22 11 56 12
75 2 30 -1 35 -23 38 -22 2 -23 1 -7 -8z"/>
<path d="M240 3042 c-30 -24 -19 -58 22 -75 l31 -12 -27 -32 c-30 -36 -33 -71
-8 -112 18 -29 19 -111 2 -111 -11 0 -30 57 -30 91 0 50 -15 38 -17 -13 -3
-75 -20 -81 -33 -11 -7 37 -8 37 -9 7 -1 -18 8 -43 20 -58 19 -24 35 -86 22
-86 -12 0 -32 36 -34 60 -1 19 -3 20 -6 7 -7 -27 15 -72 40 -86 12 -6 30 -25
39 -41 14 -25 15 -30 2 -30 -8 0 -22 9 -31 19 -9 11 -21 17 -26 14 -6 -3 -7
-1 -3 5 4 7 4 17 0 23 -5 8 -8 8 -14 0 -5 -9 -10 -8 -20 4 -10 12 -10 15 4 15
13 0 15 4 6 19 -5 11 -11 35 -11 53 l-2 33 -6 -37 c-8 -47 -29 -38 -38 16 -4
27 0 50 17 86 19 40 21 54 12 78 -9 27 -8 31 14 41 32 14 41 14 26 -1 -14 -14
-16 -58 -3 -58 12 0 71 68 71 82 0 6 -10 -2 -22 -18 -41 -52 -48 -58 -48 -36
0 11 7 25 15 32 8 7 15 18 15 26 0 10 -5 10 -27 -2 -33 -16 -47 -18 -38 -4 10
17 -4 11 -25 -10 -11 -11 -20 -29 -20 -39 0 -11 -18 -38 -40 -61 -37 -39 -40
-40 -40 -18 0 13 7 33 15 44 17 23 19 38 3 28 -8 -5 -9 -1 -4 12 5 13 4 16 -3
9 -21 -21 -33 -123 -20 -163 17 -53 19 -55 35 -35 13 17 13 17 14 -5 0 -30 41
-94 74 -115 24 -16 25 -16 20 0 -3 10 8 3 24 -15 31 -35 134 -92 166 -92 16 0
16 2 -5 21 l-24 20 28 -5 c31 -7 34 0 10 26 -11 12 -12 18 -3 18 7 0 10 8 7
20 -6 23 8 28 16 6 3 -8 15 -19 26 -25 18 -10 19 -9 14 24 -4 28 -2 35 11 35
20 0 20 5 0 35 l-16 25 33 -7 c19 -3 44 -13 56 -20 12 -8 34 -16 50 -17 22 -2
29 -9 31 -29 6 -47 45 -64 162 -71 58 -3 124 -9 148 -12 24 -3 69 -3 100 2 54
8 50 9 -73 17 -71 4 -160 8 -197 8 -39 0 -68 4 -68 10 0 5 -11 21 -25 34 -19
16 -22 25 -14 31 7 4 9 3 6 -3 -4 -6 0 -13 8 -17 28 -10 16 27 -17 56 l-33 29
28 -4 c31 -5 35 4 10 24 -11 10 -14 10 -9 2 11 -19 -25 -16 -52 3 -30 21 -28
34 6 25 15 -4 42 -4 60 1 l33 9 -56 30 c-37 20 -63 28 -77 23 -12 -4 -18 -2
-14 4 3 5 -2 9 -11 8 -11 0 -24 13 -34 35 -16 32 -49 70 -49 55 0 -10 52 -116
60 -121 4 -2 21 -1 37 4 24 7 37 4 64 -13 l34 -21 -28 -3 c-16 -2 -40 4 -54
13 -34 23 -40 12 -13 -24 26 -38 7 -43 -35 -9 -27 21 -28 21 -16 0 6 -11 19
-23 28 -27 24 -8 59 -55 41 -55 -38 0 -99 83 -82 113 4 7 3 9 -1 4 -5 -4 -17
1 -28 10 -20 18 -20 18 -3 -17 9 -19 21 -43 27 -53 8 -15 7 -18 -8 -15 -9 2
-23 13 -29 26 -6 12 -18 30 -27 40 -10 10 -17 34 -18 53 0 19 -4 43 -9 54 -6
14 -9 4 -9 -37 -1 -45 3 -62 19 -78 11 -11 20 -22 20 -25 0 -3 7 -22 15 -42
19 -46 13 -52 -19 -20 -19 19 -26 21 -30 11 -3 -8 -3 -21 0 -29 8 -19 -10 -19
-26 0 -7 8 -15 13 -19 11 -8 -5 -11 19 -11 84 0 25 -9 61 -20 83 l-20 38 30
62 c27 56 28 62 13 69 -10 3 -14 7 -9 7 5 1 1 10 -9 21 -14 16 -20 17 -27 8
-6 -10 -8 -9 -8 4 0 14 7 16 35 11 28 -4 35 -2 35 11 0 22 -42 21 -70 -2z m57
2 c-3 -3 -12 -4 -19 -1 -8 3 -5 6 6 6 11 1 17 -2 13 -5z m-167 -169 c7 -19 4
-36 -15 -77 -18 -39 -26 -48 -31 -35 -3 10 -4 27 -1 40 8 31 31 97 35 97 1 0
7 -11 12 -25z m-63 -94 c-2 -10 -11 -26 -20 -35 -16 -16 -17 -16 -17 0 0 15
26 54 36 54 2 0 3 -8 1 -19z m38 -98 c9 -21 14 -47 12 -58 -3 -17 -5 -16 -16
10 -16 38 -25 85 -17 85 3 0 13 -17 21 -37z m175 -41 l-1 -27 -19 24 c-11 13
-20 18 -20 12 0 -14 36 -51 50 -51 5 0 18 -17 28 -39 19 -38 19 -38 0 -33 -11
2 -35 28 -54 57 -27 40 -34 58 -28 78 5 22 9 25 25 16 12 -6 19 -20 19 -37z
m300 13 c13 -14 20 -25 16 -25 -15 0 -66 31 -66 40 0 18 26 10 50 -15z m-182
-59 c2 -19 0 -26 -7 -21 -6 3 -9 10 -6 15 3 5 1 11 -5 15 -14 9 -12 27 3 23 6
-3 13 -17 15 -32z m-58 -2 c0 -20 -7 -17 -20 6 -9 16 -8 18 5 14 8 -4 15 -12
15 -20z m-40 -90 c0 -2 -9 0 -20 6 -11 6 -20 13 -20 16 0 2 9 0 20 -6 11 -6
20 -13 20 -16z"/>
<path d="M423 3034 c-29 -12 -52 -48 -40 -61 3 -2 8 4 11 15 4 11 20 25 36 32
17 7 30 16 30 21 0 5 -1 9 -2 8 -2 0 -17 -7 -35 -15z"/>
<path d="M178 2974 c-3 -3 -19 -6 -34 -8 -19 -2 -30 -10 -33 -22 -3 -16 -1
-16 12 -5 9 7 20 10 25 7 5 -3 17 3 27 14 16 17 18 30 3 14z"/>
<path d="M301 2902 c-14 -36 -20 -68 -16 -81 8 -26 25 -28 18 -2 -3 11 3 40
12 64 9 25 15 52 13 62 -1 9 -13 -10 -27 -43z"/>
<path d="M370 2885 c4 -48 10 -68 25 -79 11 -9 24 -16 29 -16 6 0 2 6 -9 13
-12 9 -21 34 -26 72 -11 80 -26 88 -19 10z"/>
<path d="M4110 2768 c46 -58 60 -69 60 -44 0 8 -24 34 -52 58 l-52 43 44 -57z"/>
<path d="M4166 2767 c30 -36 92 -77 115 -77 18 1 73 49 65 57 -3 3 -12 0 -20
-6 -17 -15 -76 0 -145 37 l-44 23 29 -34z"/>
<path d="M4217 2793 c-3 -5 13 -19 36 -30 37 -18 44 -19 56 -6 12 13 12 16 0
24 -8 5 -21 9 -29 9 -8 0 -25 3 -36 6 -12 3 -24 2 -27 -3z"/>
<path d="M765 2750 c-27 -17 -44 -30 -37 -30 14 0 102 49 102 56 0 9 -17 2
-65 -26z"/>
<path d="M856 2741 c-22 -23 -36 -46 -34 -57 2 -12 14 -1 41 39 20 32 36 57
34 57 -2 0 -20 -18 -41 -39z"/>
<path d="M1125 2574 c-11 -9 -33 -22 -50 -30 -16 -7 -23 -13 -15 -14 15 0 90
46 90 55 0 7 -3 6 -25 -11z"/>
<path d="M4427 2549 c-22 -11 -37 -22 -34 -25 6 -6 54 12 80 31 32 22 -1 18
-46 -6z"/>
<path d="M531 2526 c17 -15 89 -44 89 -36 0 6 -16 18 -35 26 -32 13 -64 19
-54 10z"/>
<path d="M4191 2499 c-114 -13 -99 -23 26 -15 123 7 201 25 103 24 -30 0 -88
-4 -129 -9z"/>
<path d="M685 2469 c22 -4 74 -7 115 -7 l75 1 -60 7 c-33 4 -85 8 -115 8 -55
0 -55 0 -15 -9z"/>
<path d="M4500 2460 c-12 -8 -12 -10 5 -10 11 0 36 -6 57 -13 l36 -13 -24 -39
c-28 -47 -32 -121 -8 -151 15 -19 16 -19 9 1 -17 54 -16 77 5 122 12 26 32 54
43 62 19 14 18 15 -24 26 -24 6 -53 14 -64 18 -11 4 -27 2 -35 -3z"/>
<path d="M447 2410 l-47 -17 21 -19 c32 -28 59 -99 53 -137 -4 -30 -4 -31 6
-7 13 29 -1 89 -31 131 l-18 25 33 12 c18 7 40 12 50 12 9 0 14 5 11 10 -8 13
-19 11 -78 -10z"/>
<path d="M4665 2365 c-7 -50 -3 -101 12 -149 4 -15 7 -16 15 -5 8 11 9 10 4
-4 -3 -10 2 -30 10 -45 27 -44 164 -170 198 -181 l31 -11 -40 38 c-70 64 -101
132 -112 247 -7 74 -23 80 -24 10 l-1 -60 -12 50 c-6 28 -17 60 -23 72 -7 12
-13 30 -13 39 0 11 -3 14 -9 9 -6 -6 -12 -39 -14 -75 -2 -36 -3 -23 -1 28 3
101 -11 124 -21 37z"/>
<path d="M509 2393 c-1 -5 -1 -11 0 -15 0 -4 -5 -5 -13 -2 -8 3 -17 0 -22 -7
-5 -9 2 -11 29 -6 37 6 37 6 38 -31 l1 -37 8 33 c12 50 18 48 14 -5 -4 -47 -3
-48 7 -13 6 19 14 44 19 55 7 19 4 20 -34 17 -31 -2 -37 -1 -26 7 13 9 13 11
-2 11 -10 0 -19 -3 -19 -7z"/>
<path d="M345 2352 c4 -18 11 -63 15 -100 l9 -67 -3 88 c-1 55 -7 92 -15 100
-11 10 -12 6 -6 -21z"/>
<path d="M4311 2318 c-1 -20 14 -24 25 -6 4 6 3 8 -4 4 -5 -3 -13 0 -15 6 -3
8 -6 6 -6 -4z"/>
<path d="M4512 2297 c-22 -23 -32 -84 -12 -72 10 6 15 -15 10 -44 -1 -12 1
-12 13 -3 11 10 16 7 25 -13 6 -14 8 -33 5 -42 -6 -15 -4 -16 9 -6 18 16 28 7
28 -24 0 -13 4 -22 9 -19 11 7 21 -17 21 -54 0 -22 -6 -30 -31 -39 -25 -9 -29
-8 -21 2 7 8 7 18 2 27 -7 12 -15 9 -42 -15 l-33 -30 28 31 c36 40 18 56 -26
23 -27 -19 -29 -19 -14 -2 16 18 14 33 -3 33 -4 0 -23 -15 -41 -32 -18 -18
-27 -24 -19 -13 27 37 96 88 75 56 -9 -15 15 -25 28 -12 9 9 7 10 -7 5 -13 -5
-17 -4 -13 3 4 6 0 16 -8 23 -12 10 -22 7 -52 -16 -21 -15 -39 -28 -41 -29 -1
-2 -5 -31 -7 -66 -3 -61 -3 -62 9 -30 14 39 27 23 19 -22 -3 -16 -1 -27 6 -27
6 0 11 8 11 18 0 9 5 24 11 32 7 11 9 4 4 -26 -4 -25 0 -66 11 -107 16 -65 34
-89 34 -47 0 26 25 76 42 84 7 4 3 4 -9 2 -27 -5 -27 -4 -8 33 15 30 45 49 45
29 0 -6 3 -8 6 -5 4 4 2 13 -5 21 -9 11 -7 15 9 19 11 3 19 11 18 19 -2 7 5
12 14 12 13 -1 18 10 24 52 8 66 0 111 -26 144 l-20 25 10 -32 c12 -46 0 -41
-34 15 -21 33 -29 61 -30 94 -1 27 -1 48 -2 48 0 0 -10 -10 -22 -23z m38 -331
c0 -2 -12 -11 -27 -20 l-28 -17 24 20 c23 21 31 25 31 17z m-60 -60 c0 -3 -4
-8 -10 -11 -5 -3 -10 -1 -10 4 0 6 5 11 10 11 6 0 10 -2 10 -4z m20 -35 c0 -5
-7 -14 -15 -21 -8 -7 -15 -20 -16 -29 0 -9 -3 -11 -5 -5 -6 15 13 64 26 64 5
0 10 -4 10 -9z"/>
<path d="M4801 2294 c0 -11 3 -14 6 -6 3 7 2 16 -1 19 -3 4 -6 -2 -5 -13z"/>
<path d="M4414 2111 c17 -7 16 -8 -8 -24 -33 -22 -63 -77 -42 -77 8 0 16 10
18 23 2 12 5 20 8 17 3 -3 16 5 30 18 13 12 27 22 32 22 4 0 5 7 2 15 -4 8
-18 15 -33 14 -21 0 -23 -2 -7 -8z"/>
<path d="M4368 2103 c7 -3 16 -2 19 1 4 3 -2 6 -13 5 -11 0 -14 -3 -6 -6z"/>
<path d="M4335 2090 c-4 -6 2 -10 12 -10 14 0 15 -2 4 -9 -8 -5 -20 -7 -27 -4
-8 3 -18 -6 -24 -23 -9 -22 -8 -30 1 -33 7 -2 2 -9 -12 -18 -21 -11 -21 -13
-4 -11 27 4 35 18 28 46 -3 12 -1 22 3 20 12 -3 54 21 54 31 0 13 -29 22 -35
11z"/>
<path d="M4361 1965 c0 -35 2 -37 11 -19 7 15 7 28 -1 40 -9 16 -10 12 -10
-21z"/>
<path d="M4287 1950 c-3 -14 1 -17 19 -16 13 0 24 1 24 1 0 0 -9 8 -19 17 -18
15 -19 15 -24 -2z"/>
<path d="M4841 1890 c-13 -38 -5 -84 21 -128 27 -44 31 -37 12 18 -10 29 -14
62 -10 93 6 53 -7 63 -23 17z"/>
<path d="M195 1885 c14 -41 17 -92 7 -128 -13 -47 -6 -48 14 -2 20 49 18 99
-7 126 -18 21 -20 21 -14 4z"/>
<path d="M4580 1870 c0 -6 5 -8 10 -5 14 9 12 -8 -2 -24 -9 -10 -9 -12 -1 -7
7 4 13 -4 16 -21 3 -16 4 -8 3 16 0 26 -6 46 -13 49 -7 2 -13 -1 -13 -8z"/>
<path d="M4352 1830 c0 -19 2 -27 5 -17 2 9 2 25 0 35 -3 9 -5 1 -5 -18z"/>
<path d="M4744 1828 c8 -42 49 -104 78 -119 l23 -12 -21 24 c-29 31 -64 99
-64 121 0 10 -5 18 -11 18 -8 0 -9 -11 -5 -32z"/>
<path d="M311 1822 c-1 -23 -26 -75 -58 -122 -16 -23 -15 -23 14 4 38 35 56
74 50 112 -3 23 -4 24 -6 6z"/>
<path d="M4910 1807 c0 -21 35 -93 51 -103 6 -3 3 5 -6 20 -10 14 -23 43 -31
64 -7 20 -13 29 -14 19z"/>
<path d="M3989 1763 c-13 -16 -12 -17 4 -4 9 7 17 15 17 17 0 8 -8 3 -21 -13z"/>
<path d="M4314 1758 l-19 -23 23 19 c12 11 22 21 22 23 0 8 -8 2 -26 -19z"/>
<path d="M4001 1740 c-31 -26 -17 -26 16 0 14 11 22 20 17 20 -5 -1 -20 -10
-33 -20z"/>
<path d="M4621 1744 c0 -11 3 -14 6 -6 3 7 2 16 -1 19 -3 4 -6 -2 -5 -13z"/>
<path d="M4042 1740 c-4 -3 -14 -14 -22 -25 -14 -19 -14 -19 3 -6 20 16 57 22
57 10 0 -4 -7 -9 -15 -13 -8 -3 -15 -11 -15 -18 0 -9 3 -10 8 -2 4 6 16 14 28
18 11 3 21 13 21 20 0 8 -6 12 -15 8 -9 -3 -13 -1 -9 4 6 10 -28 14 -41 4z"/>
<path d="M4321 1735 c-39 -18 -44 -18 -36 -5 3 6 -1 7 -10 3 -11 -4 -13 -8 -5
-13 13 -8 -3 -24 -41 -39 -23 -10 -23 -10 -2 -10 26 -1 155 64 146 73 -9 8
-13 7 -52 -9z"/>
<path d="M4466 1712 c-13 -22 -95 -69 -155 -89 l-66 -23 58 4 c38 3 74 14 105
32 58 33 93 64 86 75 -7 11 -21 11 -28 1z"/>
<path d="M4082 1688 c-14 -14 -16 -44 -3 -52 4 -3 6 6 3 21 -5 25 -3 26 27 20
18 -4 31 -2 31 3 0 6 -4 10 -9 10 -5 0 -15 2 -23 5 -7 3 -19 0 -26 -7z"/>
<path d="M4970 1686 c0 -2 8 -10 18 -17 15 -13 16 -12 3 4 -13 16 -21 21 -21
13z"/>
<path d="M491 1643 c-15 -54 -13 -181 4 -228 l14 -39 -37 -38 c-25 -25 -44
-36 -57 -33 -29 7 -136 -26 -168 -51 -15 -12 -27 -30 -27 -41 0 -10 -13 -61
-29 -113 -37 -120 -56 -208 -47 -217 3 -4 39 26 79 65 167 165 338 247 545
261 87 5 97 8 97 25 0 13 -24 36 -70 68 -146 101 -230 208 -256 328 -13 60
-34 66 -48 13z"/>
<path d="M4517 1653 c-4 -3 -7 -16 -7 -27 0 -12 -13 -49 -29 -83 -38 -79 -126
-166 -231 -228 -44 -26 -83 -51 -86 -56 -13 -21 19 -39 70 -39 168 -1 355 -97
511 -262 52 -55 89 -88 95 -82 9 9 -16 157 -39 234 -6 19 -11 49 -11 67 0 26
-8 38 -46 67 -43 33 -120 56 -142 42 -5 -3 -26 12 -46 33 l-37 38 20 61 c38
111 21 279 -22 235z"/>
<path d="M4946 1615 c-3 -16 -15 -66 -25 -110 -10 -44 -17 -82 -16 -83 2 -2
11 10 20 27 9 18 21 29 27 25 6 -4 9 -1 6 7 -3 8 0 28 7 46 11 26 11 39 0 75
l-13 43 -6 -30z"/>
<path d="M4982 1610 c0 -14 2 -19 5 -12 2 6 2 18 0 25 -3 6 -5 1 -5 -13z"/>
<path d="M122 1556 c3 -34 14 -70 32 -100 15 -26 29 -46 31 -44 2 2 -8 36 -21
77 -13 40 -24 84 -24 97 0 13 -5 24 -11 24 -8 0 -10 -18 -7 -54z"/>
<path d="M4842 1555 c-7 -14 -12 -43 -11 -63 1 -36 2 -36 14 14 7 28 15 57 19
63 4 6 3 11 -2 11 -5 0 -14 -11 -20 -25z"/>
<path d="M220 1554 c0 -6 3 -14 8 -18 4 -4 12 -26 19 -49 l11 -42 1 36 c1 23
-6 46 -19 60 -10 13 -19 19 -20 13z"/>
<path d="M1 1480 c0 -45 3 -59 9 -45 12 27 12 77 0 95 -7 10 -10 -5 -9 -50z"/>
<path d="M4820 1369 c0 -5 5 -7 10 -4 6 3 10 8 10 11 0 2 -4 4 -10 4 -5 0 -10
-5 -10 -11z"/>
</g>
</svg>
